<control>
default_path=https://intronet.github.io/Samples/Instruments/session-grand/

<global>
ampeg_release=1.0

<region> sample=A0.ogg pitch_keycenter=21 lokey=0 hikey=22
<region> sample=C1.ogg pitch_keycenter=24 lokey=23 hikey=25
<region> sample=Ds1.ogg pitch_keycenter=27 lokey=26 hikey=28
<region> sample=Fs1.ogg pitch_keycenter=30 lokey=29 hikey=31
<region> sample=A1.ogg pitch_keycenter=33 lokey=32 hikey=34
<region> sample=C2.ogg pitch_keycenter=36 lokey=35 hikey=37
<region> sample=Ds2.ogg pitch_keycenter=39 lokey=38 hikey=40
<region> sample=Fs2.ogg pitch_keycenter=42 lokey=41 hikey=43
<region> sample=A2.ogg pitch_keycenter=45 lokey=44 hikey=46
<region> sample=C3.ogg pitch_keycenter=48 lokey=47 hikey=49
<region> sample=Ds3.ogg pitch_keycenter=51 lokey=50 hikey=52
<region> sample=Fs3.ogg pitch_keycenter=54 lokey=53 hikey=55
<region> sample=A3.ogg pitch_keycenter=57 lokey=56 hikey=58
<region> sample=C4.ogg pitch_keycenter=60 lokey=59 hikey=61
<region> sample=Ds4.ogg pitch_keycenter=63 lokey=62 hikey=64
<region> sample=Fs4.ogg pitch_keycenter=66 lokey=65 hikey=67
<region> sample=A4.ogg pitch_keycenter=69 lokey=68 hikey=70
<region> sample=C5.ogg pitch_keycenter=72 lokey=71 hikey=73
<region> sample=Ds5.ogg pitch_keycenter=75 lokey=74 hikey=76
<region> sample=Fs5.ogg pitch_keycenter=78 lokey=77 hikey=81
<region> sample=C6.ogg pitch_keycenter=84 lokey=82 hikey=85
<region> sample=Ds6.ogg pitch_keycenter=87 lokey=86 hikey=90
<region> sample=A6.ogg pitch_keycenter=93 lokey=91 hikey=94
<region> sample=C7.ogg pitch_keycenter=96 lokey=95 hikey=97
<region> sample=Ds7.ogg pitch_keycenter=99 lokey=98 hikey=100
<region> sample=Fs7.ogg pitch_keycenter=102 lokey=101 hikey=103
<region> sample=A7.ogg pitch_keycenter=105 lokey=104 hikey=106
<region> sample=C8.ogg pitch_keycenter=108 lokey=107 hikey=127
